# xmcd
#
# Track frame offsets:
#       150
#       11265
#       19522
#       29987
#       39280
#       47880
#       59065
#       67147
#       77927
#       87090
#       108060
#       118532
#       130447
#       142297
#       151600
#       161835
#       170452
#       179375
#       190767
#       202162
#
# Disc length: 2868 seconds
#
# Revision: 1
# Processed by: cddbd v1.5.2PL0 Copyright (c) Steve Scherf et al.
# Submitted via: FreeDbEdit v0.1
#
DISCID=1b0b3214
DTITLE=Roger Miller - The Legendary Roger Miller [CD1]
DYEAR=1900
DGENRE=Folk
TTITLE0=King of the Road
TTITLE1=Dang Me
TTITLE2=Engine Engine #9
TTITLE3=Chug a Lug
TTITLE4=England Swings
TTITLE5=Husbands and Wives
TTITLE6=Do-Whacka-Do
TTITLE7=When Two Worlds Collide
TTITLE8=You Don't Want My Love
TTITLE9=Vance
TTITLE10=Kansas City Star
TTITLE11=Little Green Apples
TTITLE12=Walkin' in the Sunshine
TTITLE13=One Dyin' and a Buryin'
TTITLE14=I've Been a Long Time Leavin' (But I'll Be a Long Time Gone)
TTITLE15=You Can't Roller Skate in a Buffalo Herd
TTITLE16=My Uncle Used to Love Me but She Died
TTITLE17=The Tom Green County Fair
TTITLE18=Lock, Stock and Teardrops
TTITLE19=Tomorrow Night in Baltimore
EXTD=
EXTT0=
EXTT1=
EXTT2=
EXTT3=
EXTT4=
EXTT5=
EXTT6=
EXTT7=
EXTT8=
EXTT9=
EXTT10=
EXTT11=
EXTT12=
EXTT13=
EXTT14=
EXTT15=
EXTT16=
EXTT17=
EXTT18=
EXTT19=
PLAYORDER=
